<svg xmlns="http://www.w3.org/2000/svg" width="211.7624969482422" height="60.150001525878906" role="img" focusable="false" viewBox="0 -1562.5 10972.3 2808.5" xmlns:xlink="http://www.w3.org/1999/xlink" aria-hidden="true" style="vertical-align: -2.819ex; text-align: center; color: rgb(51, 51, 51);"><defs><path id="MJX-4-TEX-I-1D43F" d="M228 637Q194 637 192 641Q191 643 191 649Q191 673 202 682Q204 683 217 683Q271 680 344 680Q485 680 506 683H518Q524 677 524 674T522 656Q517 641 513 637H475Q406 636 394 628Q387 624 380 600T313 336Q297 271 279 198T252 88L243 52Q243 48 252 48T311 46H328Q360 46 379 47T428 54T478 72T522 106T564 161Q580 191 594 228T611 270Q616 273 628 273H641Q647 264 647 262T627 203T583 83T557 9Q555 4 553 3T537 0T494 -1Q483 -1 418 -1T294 0H116Q32 0 32 10Q32 17 34 24Q39 43 44 45Q48 46 59 46H65Q92 46 125 49Q139 52 144 61Q147 65 216 339T285 628Q285 635 228 637Z"></path><path id="MJX-4-TEX-N-28" d="M94 250Q94 319 104 381T127 488T164 576T202 643T244 695T277 729T302 750H315H319Q333 750 333 741Q333 738 316 720T275 667T226 581T184 443T167 250T184 58T225 -81T274 -167T316 -220T333 -241Q333 -250 318 -250H315H302L274 -226Q180 -141 137 -14T94 250Z"></path><path id="MJX-4-TEX-B-1D430" d="M624 444Q636 441 722 441Q797 441 800 444H805V382H741L593 11Q592 10 590 8T586 4T584 2T581 0T579 -2T575 -3T571 -3T567 -4T561 -4T553 -4H542Q525 -4 518 6T490 70Q474 110 463 137L415 257L367 137Q357 111 341 72Q320 17 313 7T289 -4H277Q259 -4 253 -2T238 11L90 382H25V444H32Q47 441 140 441Q243 441 261 444H270V382H222L310 164L382 342L366 382H303V444H310Q322 441 407 441Q508 441 523 444H531V382H506Q481 382 481 380Q482 376 529 259T577 142L674 382H617V444H624Z"></path><path id="MJX-4-TEX-N-2C" d="M78 35T78 60T94 103T137 121Q165 121 187 96T210 8Q210 -27 201 -60T180 -117T154 -158T130 -185T117 -194Q113 -194 104 -185T95 -172Q95 -168 106 -156T131 -126T157 -76T173 -3V9L172 8Q170 7 167 6T161 3T152 1T140 0Q113 0 96 17Z"></path><path id="MJX-4-TEX-I-1D44F" d="M73 647Q73 657 77 670T89 683Q90 683 161 688T234 694Q246 694 246 685T212 542Q204 508 195 472T180 418L176 399Q176 396 182 402Q231 442 283 442Q345 442 383 396T422 280Q422 169 343 79T173 -11Q123 -11 82 27T40 150V159Q40 180 48 217T97 414Q147 611 147 623T109 637Q104 637 101 637H96Q86 637 83 637T76 640T73 647ZM336 325V331Q336 405 275 405Q258 405 240 397T207 376T181 352T163 330L157 322L136 236Q114 150 114 114Q114 66 138 42Q154 26 178 26Q211 26 245 58Q270 81 285 114T318 219Q336 291 336 325Z"></path><path id="MJX-4-TEX-N-29" d="M60 749L64 750Q69 750 74 750H86L114 726Q208 641 251 514T294 250Q294 182 284 119T261 12T224 -76T186 -143T145 -194T113 -227T90 -246Q87 -249 86 -250H74Q66 -250 63 -250T58 -247T55 -238Q56 -237 66 -225Q221 -64 221 250T66 725Q56 737 55 738Q55 746 60 749Z"></path><path id="MJX-4-TEX-N-3D" d="M56 347Q56 360 70 367H707Q722 359 722 347Q722 336 708 328L390 327H72Q56 332 56 347ZM56 153Q56 168 72 173H708Q722 163 722 153Q722 140 707 133H70Q56 140 56 153Z"></path><path id="MJX-4-TEX-N-31" d="M213 578L200 573Q186 568 160 563T102 556H83V602H102Q149 604 189 617T245 641T273 663Q275 666 285 666Q294 666 302 660V361L303 61Q310 54 315 52T339 48T401 46H427V0H416Q395 3 257 3Q121 3 100 0H88V46H114Q136 46 152 46T177 47T193 50T201 52T207 57T213 61V578Z"></path><path id="MJX-4-TEX-I-1D45B" d="M21 287Q22 293 24 303T36 341T56 388T89 425T135 442Q171 442 195 424T225 390T231 369Q231 367 232 367L243 378Q304 442 382 442Q436 442 469 415T503 336T465 179T427 52Q427 26 444 26Q450 26 453 27Q482 32 505 65T540 145Q542 153 560 153Q580 153 580 145Q580 144 576 130Q568 101 554 73T508 17T439 -10Q392 -10 371 17T350 73Q350 92 386 193T423 345Q423 404 379 404H374Q288 404 229 303L222 291L189 157Q156 26 151 16Q138 -11 108 -11Q95 -11 87 -5T76 7T74 17Q74 30 112 180T152 343Q153 348 153 366Q153 405 129 405Q91 405 66 305Q60 285 60 284Q58 278 41 278H27Q21 284 21 287Z"></path><path id="MJX-4-TEX-LO-2211" d="M60 948Q63 950 665 950H1267L1325 815Q1384 677 1388 669H1348L1341 683Q1320 724 1285 761Q1235 809 1174 838T1033 881T882 898T699 902H574H543H251L259 891Q722 258 724 252Q725 250 724 246Q721 243 460 -56L196 -356Q196 -357 407 -357Q459 -357 548 -357T676 -358Q812 -358 896 -353T1063 -332T1204 -283T1307 -196Q1328 -170 1348 -124H1388Q1388 -125 1381 -145T1356 -210T1325 -294L1267 -449L666 -450Q64 -450 61 -448Q55 -446 55 -439Q55 -437 57 -433L590 177Q590 178 557 222T452 366T322 544L56 909L55 924Q55 945 60 948Z"></path><path id="MJX-4-TEX-I-1D456" d="M184 600Q184 624 203 642T247 661Q265 661 277 649T290 619Q290 596 270 577T226 557Q211 557 198 567T184 600ZM21 287Q21 295 30 318T54 369T98 420T158 442Q197 442 223 419T250 357Q250 340 236 301T196 196T154 83Q149 61 149 51Q149 26 166 26Q175 26 185 29T208 43T235 78T260 137Q263 149 265 151T282 153Q302 153 302 143Q302 135 293 112T268 61T223 11T161 -11Q129 -11 102 10T74 74Q74 91 79 106T122 220Q160 321 166 341T173 380Q173 404 156 404H154Q124 404 99 371T61 287Q60 286 59 284T58 281T56 279T53 278T49 278T41 278H27Q21 284 21 287Z"></path><path id="MJX-4-TEX-I-1D459" d="M117 59Q117 26 142 26Q179 26 205 131Q211 151 215 152Q217 153 225 153H229Q238 153 241 153T246 151T248 144Q247 138 245 128T234 90T214 43T183 6T137 -11Q101 -11 70 11T38 85Q38 97 39 102L104 360Q167 615 167 623Q167 626 166 628T162 632T157 634T149 635T141 636T132 637T122 637Q112 637 109 637T101 638T95 641T94 647Q94 649 96 661Q101 680 107 682T179 688Q194 689 213 690T243 693T254 694Q266 694 266 686Q266 675 193 386T118 83Q118 81 118 75T117 65V59Z"></path></defs><g stroke="currentColor" fill="currentColor" stroke-width="0" transform="scale(1,-1)"><g data-mml-node="math"><g data-mml-node="mi"><use data-c="1D43F" href="#MJX-4-TEX-I-1D43F"></use></g><g data-mml-node="mo" transform="translate(681,0)"><use data-c="28" href="#MJX-4-TEX-N-28"></use></g><g data-mml-node="TeXAtom" data-mjx-texclass="ORD" transform="translate(1070,0)"><g data-mml-node="mi"><use data-c="1D430" href="#MJX-4-TEX-B-1D430"></use></g></g><g data-mml-node="mo" transform="translate(1901,0)"><use data-c="2C" href="#MJX-4-TEX-N-2C"></use></g><g data-mml-node="mi" transform="translate(2345.7,0)"><use data-c="1D44F" href="#MJX-4-TEX-I-1D44F"></use></g><g data-mml-node="mo" transform="translate(2774.7,0)"><use data-c="29" href="#MJX-4-TEX-N-29"></use></g><g data-mml-node="mo" transform="translate(3441.4,0)"><use data-c="3D" href="#MJX-4-TEX-N-3D"></use></g><g data-mml-node="mfrac" transform="translate(4497.2,0)"><g data-mml-node="mn" transform="translate(270,676)"><use data-c="31" href="#MJX-4-TEX-N-31"></use></g><g data-mml-node="mi" transform="translate(220,-686)"><use data-c="1D45B" href="#MJX-4-TEX-I-1D45B"></use></g><rect width="800" height="60" x="120" y="220"></rect></g><g data-mml-node="munderover" transform="translate(5703.9,0)"><g data-mml-node="mo"><use data-c="2211" href="#MJX-4-TEX-LO-2211"></use></g><g data-mml-node="TeXAtom" transform="translate(148.2,-1087.9) scale(0.707)" data-mjx-texclass="ORD"><g data-mml-node="mi"><use data-c="1D456" href="#MJX-4-TEX-I-1D456"></use></g><g data-mml-node="mo" transform="translate(345,0)"><use data-c="3D" href="#MJX-4-TEX-N-3D"></use></g><g data-mml-node="mn" transform="translate(1123,0)"><use data-c="31" href="#MJX-4-TEX-N-31"></use></g></g><g data-mml-node="TeXAtom" transform="translate(509.9,1150) scale(0.707)" data-mjx-texclass="ORD"><g data-mml-node="mi"><use data-c="1D45B" href="#MJX-4-TEX-I-1D45B"></use></g></g></g><g data-mml-node="msup" transform="translate(7314.6,0)"><g data-mml-node="mi"><use data-c="1D459" href="#MJX-4-TEX-I-1D459"></use></g><g data-mml-node="TeXAtom" transform="translate(331,413) scale(0.707)" data-mjx-texclass="ORD"><g data-mml-node="mo"><use data-c="28" href="#MJX-4-TEX-N-28"></use></g><g data-mml-node="mi" transform="translate(389,0)"><use data-c="1D456" href="#MJX-4-TEX-I-1D456"></use></g><g data-mml-node="mo" transform="translate(734,0)"><use data-c="29" href="#MJX-4-TEX-N-29"></use></g></g></g><g data-mml-node="mo" transform="translate(8489.6,0)"><use data-c="28" href="#MJX-4-TEX-N-28"></use></g><g data-mml-node="TeXAtom" data-mjx-texclass="ORD" transform="translate(8878.6,0)"><g data-mml-node="mi"><use data-c="1D430" href="#MJX-4-TEX-B-1D430"></use></g></g><g data-mml-node="mo" transform="translate(9709.6,0)"><use data-c="2C" href="#MJX-4-TEX-N-2C"></use></g><g data-mml-node="mi" transform="translate(10154.3,0)"><use data-c="1D44F" href="#MJX-4-TEX-I-1D44F"></use></g><g data-mml-node="mo" transform="translate(10583.3,0)"><use data-c="29" href="#MJX-4-TEX-N-29"></use></g></g></g></svg>